<?xml version="1.0" encoding="UTF-8" standalone="no"?>
<!-- Created with Inkscape (http://www.inkscape.org/) -->

<svg
   xmlns:dc="http://purl.org/dc/elements/1.1/"
   xmlns:cc="http://creativecommons.org/ns#"
   xmlns:rdf="http://www.w3.org/1999/02/22-rdf-syntax-ns#"
   xmlns:svg="http://www.w3.org/2000/svg"
   xmlns="http://www.w3.org/2000/svg"
   xmlns:sodipodi="http://sodipodi.sourceforge.net/DTD/sodipodi-0.dtd"
   xmlns:inkscape="http://www.inkscape.org/namespaces/inkscape"
   width="480.09"
   height="502"
   id="svg2"
   version="1.1"
   inkscape:version="0.48.5 r10040"
   sodipodi:docname="New document 1">
  <defs
     id="defs4" />
  <sodipodi:namedview
     id="base"
     pagecolor="#ffffff"
     bordercolor="#666666"
     borderopacity="1.0"
     inkscape:pageopacity="0.0"
     inkscape:pageshadow="2"
     inkscape:zoom="0.7"
     inkscape:cx="344.10223"
     inkscape:cy="451.29477"
     inkscape:document-units="px"
     inkscape:current-layer="layer1"
     showgrid="false"
     showguides="true"
     inkscape:guide-bbox="true"
     inkscape:window-width="1920"
     inkscape:window-height="1017"
     inkscape:window-x="-8"
     inkscape:window-y="-8"
     inkscape:window-maximized="1" />
  <metadata
     id="metadata7">
    <rdf:RDF>
      <cc:Work
         rdf:about="">
        <dc:format>image/svg+xml</dc:format>
        <dc:type
           rdf:resource="http://purl.org/dc/dcmitype/StillImage" />
        <dc:title></dc:title>
      </cc:Work>
    </rdf:RDF>
  </metadata>
  <g
     inkscape:label="Layer 1"
     inkscape:groupmode="layer"
     id="layer1"
     transform="translate(0,-550.36218)">
    <path
       sodipodi:type="star"
       style="fill:#ff0000;fill-rule:evenodd;stroke:#000000;stroke-width:1px;stroke-linecap:butt;stroke-linejoin:miter;stroke-opacity:1"
       id="path3043"
       sodipodi:sides="16"
       sodipodi:cx="168.57143"
       sodipodi:cy="269.50504"
       sodipodi:r1="169.60941"
       sodipodi:r2="33.921883"
       sodipodi:arg1="2.5722795"
       sodipodi:arg2="2.768629"
       inkscape:flatsided="false"
       inkscape:rounded="1.13"
       inkscape:randomized="0"
       d="M 25.714271,360.93361 C -57.431969,231.01761 193.18487,425.50612 136.98162,281.86539 80.778372,138.22466 28.700834,451.15038 1.6004252,299.30496 -25.499984,147.45953 131.61225,423.0504 134.65615,268.83562 137.70005,114.62083 -30.164814,383.79729 2.9064004,233.13954 35.977614,82.48178 75.666336,397.21879 137.49397,255.90776 199.32161,114.59673 -58.774671,299.04424 29.433374,172.51043 117.64142,45.976623 33.864377,351.94392 145.06306,245.04996 256.26173,138.156 -52.773146,209.79412 77.142855,126.64788 207.05885,43.50164 12.570345,294.11848 156.21107,237.91523 299.85181,181.71198 -13.073916,129.63444 138.77151,102.53403 290.61693,75.433625 15.026064,232.54586 169.24085,235.58976 323.45563,238.63365 54.279171,70.768795 204.93693,103.84001 355.59468,136.91122 40.857672,176.59995 182.1687,238.42758 323.47974,300.25522 139.03222,42.158938 265.56603,130.36698 392.09984,218.57503 86.132541,134.79799 193.0265,245.99666 299.92046,357.19534 228.28234,48.160463 311.42858,178.07646 394.57482,307.99246 143.95798,113.50395 200.16123,257.14468 256.36448,400.78541 308.44202,87.859693 335.54243,239.70512 362.64284,391.55054 205.5306,115.95967 202.4867,270.17445 199.44281,424.38924 367.30767,155.21278 334.23645,305.87054 301.16524,456.52829 261.47652,141.79128 199.64888,283.10231 137.82124,424.41335 395.91752,239.96583 307.70948,366.49964 219.50143,493.03345 303.27848,187.06615 192.0798,293.96011 80.881119,400.85407 389.916,329.21595 260,412.36219 130.084,495.50843 324.57251,244.89159 180.93178,301.09484 37.291048,357.29809 350.21677,409.37563 198.37135,436.47604 46.525924,463.57645 322.11679,306.46421 167.90201,303.42031 13.687224,300.37642 282.86368,468.24128 132.20593,435.17006 -18.451829,402.09885 296.28518,362.41013 154.97415,300.58249 13.663116,238.75485 198.11064,496.85113 71.576824,408.64309 -54.956986,320.43504 251.01031,404.21208 144.11635,293.01341 37.222394,181.81473 108.86051,490.84961 25.714271,360.93361 z"
       inkscape:transform-center-x="-16.239791"
       inkscape:transform-center-y="3.9653935"
       transform="matrix(1.2276327,0,0,1.282966,32.612012,456.27088)" />
    <path
       sodipodi:type="star"
       style="fill:#ff5555;fill-rule:evenodd;stroke:#000000;stroke-width:1px;stroke-linecap:butt;stroke-linejoin:miter;stroke-opacity:1"
       id="path3043-1"
       sodipodi:sides="16"
       sodipodi:cx="168.57143"
       sodipodi:cy="269.50504"
       sodipodi:r1="169.60941"
       sodipodi:r2="25.303225"
       sodipodi:arg1="2.5722795"
       sodipodi:arg2="2.2200578"
       inkscape:flatsided="false"
       inkscape:rounded="1.13"
       inkscape:randomized="0"
       d="M 25.714271,360.93361 C -122.81832,288.8126 213.41742,443.4325 153.27314,289.65983 90.71745,129.72183 115.62248,427.7275 1.6004252,299.30496 -108.02628,175.83288 143.44456,447.35488 146.72475,282.27123 150.13645,110.56876 59.103862,395.42084 2.9064004,233.13954 -51.124748,77.113885 77.297043,424.20123 143.50231,272.9391 212.36201,115.61231 19.25069,343.94465 29.433374,172.51043 39.223533,7.6847032 25.045222,377.49649 144.09643,263.08417 267.92084,144.08462 2.1302474,281.1357 77.142855,126.64788 149.26386,-21.884706 -5.3560354,314.35103 148.41664,254.20675 308.35463,191.65106 10.348965,216.55609 138.77151,102.53403 262.24359,-7.0926693 -9.2784137,244.37817 155.80523,247.65836 327.5077,251.07006 42.655619,160.03747 204.93693,103.84001 360.96258,49.808861 13.875234,178.23065 165.13736,244.43592 322.46415,313.29561 94.131812,120.1843 265.56603,130.36698 430.39176,140.15714 60.579975,125.97883 174.9923,245.03004 293.99184,368.85445 156.94076,103.06386 311.42858,178.07646 459.96117,250.19747 123.72543,95.577574 183.86971,249.35024 246.4254,409.28824 221.52038,111.28257 335.54243,239.70512 445.16913,363.1772 193.69829,91.655195 190.41811,256.73884 187.0064,428.44131 278.03899,143.58923 334.23645,305.87054 388.2676,461.89619 259.84581,114.80884 193.64054,266.07097 124.78085,423.39776 317.89216,195.06542 307.70948,366.49964 297.91932,531.32537 312.09763,161.51358 193.04643,275.9259 69.222009,394.92545 335.01261,257.87437 260,412.36219 187.87899,560.89478 342.49889,224.65904 188.72622,284.80332 28.788219,347.35901 326.79389,322.45398 198.37135,436.47604 74.899266,546.10274 346.42127,294.6319 181.33762,291.35171 9.6351553,287.94001 294.48723,378.9726 132.20593,435.17006 -23.819724,489.20121 323.26762,360.77942 172.00549,294.57415 14.678698,225.71446 243.01104,418.82577 71.576824,408.64309 -93.248906,398.85293 276.56288,413.03124 162.15056,293.98004 43.151013,170.15562 180.20209,435.94621 25.714271,360.93361 z"
       inkscape:transform-center-x="-16.239791"
       inkscape:transform-center-y="3.9653935"
       transform="matrix(1.2276327,0,0,1.282966,32.612062,456.27127)" />
  </g>
  <g
     inkscape:groupmode="layer"
     id="layer2"
     inkscape:label="Layer2"
     transform="translate(0,-550.36218)" />
</svg>
